<svg xmlns="http://www.w3.org/2000/svg" viewBox="0 0 2157.39 412.44"><defs><style>.cls-1{fill:#d9782d;fill-rule:evenodd;}</style></defs><g id="Layer_2" data-name="Layer 2"><g id="Layer_1-2" data-name="Layer 1"><path class="cls-1" d="M355.33,85c-28.14,0-60.49,5.77-81.34,16.18-5.71,3.12-7.81,7.83-7.81,12.51v23.44c0,7.36,5.74,10.45,8.88,10.45,6.24,0,10.94-5.74,14.06-7.82,19.29-13,38.57-21.92,64.14-21.92,31.76,0,36.47,20.86,36.47,46.43l-.09,1c0,11.95-4.07,14.17-49.42,19.91-27.64,3.65-90.72,16.16-90.72,73,0,46.91,37.52,72,81.33,72,24,0,43.78-10.49,60.48-25.06l1,13.55c0,3.65,2.62,6.26,5.21,6.26H445a6,6,0,0,0,6.27-5.79V156.4c0-42.25-22.45-71.45-95.93-71.45ZM388.7,274.71c0,6.84-17.8,25.18-41.86,25.18-27.74,0-38.21-19.91-38.21-39.79,0-28.25,22-54.39,80.07-54.39ZM525.48,1.57c-23,0-34,13.6-34,29.31,0,18.82,13.6,31.39,34,31.39s33-12.58,33-31.39C558.45,15.17,547.47,1.57,525.48,1.57ZM495.64,97.34v222c0,3.59,2.63,6.25,5.24,6.25h50.24a6.07,6.07,0,0,0,6.28-5.85,2.67,2.67,0,0,0,0-.4V97.34a6.09,6.09,0,0,0-5.88-6.3H500.88C498.27,91.05,495.64,93.71,495.64,97.34ZM8.9,311.92c87.91,41.32,213,17.28,213-87.92C221.91,127.19,56,133.45,56,73.76,56,49.7,79,33.5,108.34,33.5c26.17,0,46.07,8.9,67,24.11,5.77,4.14,9.44,6.77,14.12,6.77,5.77,0,7.33-3.67,7.33-8.4V25.68c0-4.76-1-7.39-5.76-9.47C173.24,9.44,141.84,2.57,107.29,2.57,37.7,2.57,0,45.52,0,94.2,0,199.9,163.29,178,163.29,249.65c0,43.45-62.8,73.79-135.53,23-6.81-4.68-10-7.28-14.66-7.28-8.9,0-10.49,4.73-10.49,9.42v26.68c0,4.71,1.06,7.37,6.29,10.48ZM609.22,97.34v222c0,3.59,2.6,6.25,5.22,6.25h50.25a6.05,6.05,0,0,0,6.27-5.85,2.67,2.67,0,0,0,0-.4v-179c10-5.77,30.89-16.21,48.67-16.21,34.56,0,36.65,20.92,36.65,38.7V319.29c0,3.59,2.61,6.25,5.24,6.25h50.26a6.06,6.06,0,0,0,6.25-5.85V157.54c0-42.39-22.49-71.72-72.76-71.72-28.78,0-59.14,14.14-74.84,23.58h-1V97.34a6.08,6.08,0,0,0-5.86-6.3h-49.1C611.82,91.05,609.22,93.71,609.22,97.34Zm400.92,1.59C942.1,70.62,851,85.83,851,159.62c0,83.23,131.89,65.95,131.89,111,0,36.14-62.28,39.79-107.29,5.21-3.15-2.58-6.29-4.12-10-4.12-5.21,0-8.36,2.07-8.36,9.37v20.39c0,5.8,1.55,10.5,7.86,13.61,58.08,26.2,164.84,26.74,164.84-69.58,0-82.7-133.45-63.85-133.45-105.19,0-34,65.41-30.87,103.12-5.26,3.12,2.1,7.3,4.2,9.93,4.2,5.22,0,8.38-2.1,8.38-9.42V112.51c0-5.76-1.57-11-7.83-13.58Zm1127.36,0c-68-28.31-159.12-13.1-159.12,60.69,0,83.23,131.9,65.95,131.9,111,0,36.14-62.29,39.79-107.29,5.21-3.14-2.58-6.28-4.12-10-4.12-5.24,0-8.36,2.07-8.36,9.37v20.39c0,5.8,1.57,10.5,7.85,13.61,58.06,26.2,164.88,26.74,164.88-69.58,0-82.7-133.47-63.85-133.47-105.19,0-34,65.41-30.87,103.1-5.26,3.13,2.1,7.31,4.2,9.93,4.2,5.24,0,8.38-2.1,8.38-9.42V112.51c0-5.76-1.56-11-7.84-13.58Zm-514,62.26c0-25.12,8.9-40.82,63.33-26.69,6.79,1.57,11,3.14,16.75,3.14,3.64,0,6.81-3.65,6.81-7.31V99.44c0-5.23-3.67-9.39-10.5-11-37.66-8.91-60.69,8.36-80.07,26.7l-1-.54V97.34a6.09,6.09,0,0,0-5.88-6.3h-46c-2.6,0-5.21,2.66-5.21,6.31v222c0,3.59,2.61,6.25,5.21,6.25h50.24a6.07,6.07,0,0,0,6.3-5.83V161.19Zm349.6-69C1997.76,92.14,2025.5,0,1980,0h-24.59c-5.75,0-6.78,4.16-6.78,7.3,0,6.31,15.65,22,15.65,43.46,0,22-8.34,29.83-8.34,36.64,0,2.66,2.61,4.74,6.25,4.74ZM1840.73,253.31l-3.13-10L1787.87,96.81c-1.57-4.17-3.65-5.76-8.37-5.76h-53.39c-3.14,0-4.69,1.59-4.69,4.73,0,1.57.48,3.17,2.61,8.38l86.86,210.9c14.67,35.62-28.25,61.26-69.61,49.75-6.28-1.57-10.47-3.14-16.21-3.14-3.65,0-6.78,3.65-6.78,7.29v29.87c0,6.31,4.17,13.61,27.21,13.61,55.47,0,85.29-28.25,112-94.75l85.85-215.1c1-3.14,2.07-4.69,2.07-6.8a4.69,4.69,0,0,0-4.65-4.73h-37.21c-3.65,0-6.28,2.13-7.32,5.76L1845,243.36l-4.23,9.95Zm-324,66v-222c0-3.65-2.63-6.31-5.24-6.31h-50.23a6.08,6.08,0,0,0-6.28,5.86V276.33c-9.93,5.75-30.88,16.22-48.66,16.22-34.53,0-36.65-20.87-36.65-38.71V97.34c0-3.65-2.61-6.31-5.24-6.31h-50.21a6.07,6.07,0,0,0-6.3,5.83,3.84,3.84,0,0,0,0,.48V259.06c0,42.38,22.51,71.68,72.77,71.68,28.76,0,59.13-14.14,74.84-23.5h1V319.3a6,6,0,0,0,6.27,6.25h48.67c2.59,0,5.22-2.65,5.22-6.25ZM1058.29,8.91c0-3.7,2.61-6.33,5.23-6.33h50.25A6.06,6.06,0,0,1,1120,8.91V113.06c10-8.38,33-26.73,68.57-26.73,53.93,0,87.92,47.1,87.92,109.92,0,80.59-56,134-125.09,134-37.67,0-65.41-13.1-83.75-27.24-7.83-5.75-9.4-15.63-9.4-24.05V8.91Zm69.08,287.33c5.21,3.12,13.07,5.72,28.25,5.72,33.51,0,57-34.52,57-93.12,0-22-4.68-83.81-52.33-83.81-18.82,0-32.45,10.53-40.3,16.24V282.61c0,4.77,1,9.43,7.34,13.63Z"/></g></g></svg>