<?xml version="1.0" encoding="utf-8"?>
<!-- Generator: Adobe Illustrator 23.0.1, SVG Export Plug-In . SVG Version: 6.00 Build 0)  -->
<svg version="1.1" xmlns="http://www.w3.org/2000/svg" xmlns:xlink="http://www.w3.org/1999/xlink" x="0px" y="0px"
	 viewBox="0 0 345.37 124.02" style="enable-background:new 0 0 345.37 124.02;" xml:space="preserve">
<style type="text/css">
	.st0{fill:none;}
	.st1{fill:#631DC2;}
</style>
<g id="Exclusion_Zone">
	<rect class="st0" width="345.37" height="124.02"/>
</g>
<g id="Artwork">
	<path id="Logo" class="st1" d="M131.52,67.48c0,0.54-0.02,1.09-0.05,1.64c-0.08,1.33-1.2,2.37-2.53,2.37l-34.93,0
		c1.44,5.96,6.27,10.17,13.56,10.17c3.74,0,7.7-1.18,10.57-3.84c0.92-0.85,2.33-0.91,3.31-0.13c0,0,3.53,2.88,4.78,3.81
		c1.07,0.79,1.37,2.54,0.35,3.65c-4.62,5.07-11.55,7.91-18.9,7.91c-14.7,0-26-11-26-25.28c0-13.87,9.76-25.88,25.28-25.88
		C121.34,41.91,131.52,53.71,131.52,67.48 M118.22,62.15c-0.86-4.83-5.42-9.28-11.37-9.28c-5.74,0-10.39,4.14-12.32,9.24
		c-0.06,0.15,0.06,0.31,0.22,0.31h23.24C118.14,62.42,118.25,62.29,118.22,62.15 M181.69,79.64c-1.61-0.96-6.44-3.84-6.44-3.84
		c-0.88-0.53-2.21-0.46-3.03,0.38c-4.06,4.14-7.31,4.76-10.27,4.76c-7.4,0-13.46-6.16-13.46-13.46c0-7.19,6.06-13.36,13.46-13.36
		c3.87,0,7.01,1.47,9.84,4.25c0.84,0.83,2.13,1.06,3.16,0.4l6.38-3.71c1.66-0.96,1.51-2.91,0.72-3.83
		c-4.58-5.38-11.53-9.33-20.11-9.33c-14.38,0-25.89,11.39-25.89,25.57c0,14.07,11.51,25.58,25.89,25.58c8.7,0,15.98-4.15,20.43-9.69
		C183.38,82.14,182.87,80.35,181.69,79.64 M214.83,42.93h-8.84v-9.44c0-1.4-1.14-2.54-2.54-2.54h-7.8c-1.4,0-2.54,1.14-2.54,2.54
		v9.44h-4.19c-1.4,0-2.54,1.14-2.54,2.54v6.47c0,1.4,1.14,2.54,2.54,2.54h4.19v21.99c0,10.66,6.2,16.4,14.48,16.4
		c3.83,0,6.14-0.22,7.72-0.52c1.3-0.24,2.05-1.41,2.05-2.49l0-7.03c0-1.03-0.86-2.29-2.52-2.08c-1,0.13-1.6,0.21-3.41,0.21
		c-4.52,0-5.44-2.59-5.44-6.46V54.47h8.84c1.4,0,2.54-1.14,2.54-2.54v-6.47C217.37,44.06,216.24,42.93,214.83,42.93 M311.86,41.91
		c-7.76,0.08-11.49,1.32-15.6,2.33c0,0-8.95-1.52-10.35-1.74c-1.35-0.21-2.92,0.8-2.92,2.52v44.35c0,1.4,1.14,2.54,2.54,2.54h2.58v0
		h3.76c0,0,0,0,0,0h1.21c1.4,0,2.54-1.14,2.54-2.54V65.44c0-7.86,2.26-11.08,16.35-11.48c1.05-0.03,2.45-0.97,2.45-2.55v-6.97
		C314.43,43.04,313.28,41.9,311.86,41.91 M76.37,63.75c0-15.31-9.12-21.41-19.8-21.81c-9.23-0.34-13.72,2.3-13.72,2.3
		s-5.44-1.32-9.03-1.79c-1.57-0.21-2.85,0.93-2.85,2.52v44.4c0,1.4,1.14,2.54,2.54,2.54h7.57c1.4,0,2.54-1.14,2.54-2.54V65.09
		c0-9.35,5.03-11.3,10.07-11.3c5.03,0,10.07,2.05,10.07,11.51v24.08c0,1.4,1.14,2.54,2.54,2.54h7.57c1.4,0,2.54-1.14,2.54-2.54
		V63.75 M277.78,88.31c0,0-2.42-5.26-3.89-11.2c-1.07-4.31-1.57-8.97-1.57-17.95v-13.7c0-1.4-1.14-2.54-2.54-2.54h-7.56
		c-1.42,0-2.55,1.16-2.55,2.55c0,0,0,0.28,0,0.29c0,0.07-0.08,0.11-0.14,0.07c-4.57-3.04-8.54-3.93-13.42-3.93
		c-14.38,0-25.89,11.42-25.89,25.59c0,14.07,11.51,25.58,25.89,25.58c7.9,0,12.11-2.24,15.91-5.4c0.88-0.73,1.5-0.62,2.07,0.05
		c2.28,2.7,2.29,4.16,5.67,4.16c3.18,0,4.01,0,5.68,0C277.31,91.9,278.68,90.13,277.78,88.31z M246.58,81.5c-7.69,0-14-6.41-14-14
		c0-7.48,6.3-13.89,14-13.89c7.8,0,14.11,6.41,14.11,13.89C260.69,75.09,254.38,81.5,246.58,81.5z"/>
</g>
</svg>
